<?xml version="1.0" encoding="UTF-8"?>
<svg version="1.1" xmlns="http://www.w3.org/2000/svg" width="6000" height="5000">
<path d="M0 0 C3.55611416 -0.00217189 7.11190973 -0.02034953 10.66796875 -0.03930664 C31.39217921 -0.09077843 51.99489621 1.11699498 72.53515625 3.93530273 C73.76959473 4.10304199 75.0040332 4.27078125 76.27587891 4.44360352 C89.89412722 6.37672794 103.31707126 9.12646571 116.72265625 12.18530273 C117.77678711 12.42506836 118.83091797 12.66483398 119.91699219 12.91186523 C201.67036314 31.78800036 278.10804502 73.20295872 341.6328125 127.56811523 C344.48808493 130.00430592 347.41265842 132.34563071 350.34765625 134.68530273 C355.2014628 138.62769583 359.58552477 142.9204045 363.921875 147.41186523 C366.04360029 149.51287633 368.16593077 151.45912015 370.42578125 153.40014648 C375.44269026 157.74407712 380.10516747 162.42165349 384.78515625 167.12280273 C385.64431641 167.9780957 386.50347656 168.83338867 387.38867188 169.71459961 C391.79479219 174.12745196 396.05291154 178.60306189 400.1159668 183.33349609 C402.69119479 186.30160191 405.40175768 189.13975416 408.09765625 191.99780273 C412.76500259 196.9859541 417.21210482 202.08129154 421.484375 207.41577148 C423.5347431 209.95278891 425.63051385 212.43854704 427.75219727 214.91552734 C433.1216725 221.18813956 438.23634105 227.62244732 443.21777344 234.20776367 C444.94939977 236.48326226 446.69893963 238.74443431 448.44921875 241.00561523 C456.62997278 251.60460452 464.47836738 262.34694075 471.91357422 273.48120117 C473.94482699 276.51738953 475.99199854 279.54256635 478.0390625 282.56811523 C515.5033877 338.07364411 545.6405764 397.10421749 570.0201416 459.39086914 C570.6221076 460.92847127 571.22635301 462.46518067 571.83105469 464.00170898 C578.37103602 480.7250764 583.63391201 497.9545728 589.05145264 515.06610107 C589.64969066 516.95492734 590.25067996 518.84288171 590.85205078 520.73071289 C621.22582247 616.80798289 634.57471079 718.82429565 639.63409424 828.10430908 C639.71805913 830.07728145 639.80783601 832.05000397 639.89794922 834.02270508 C644.17029852 930.23296861 638.65348939 1027.32510987 607.72265625 1240.18530273 C607.47769409 1241.46044739 607.47769409 1241.46044739 607.2277832 1242.76135254 C596.48111355 1298.63231481 583.16531344 1353.78126508 568.953125 1408.85717773 C568.67870071 1409.92445099 568.40427643 1410.99172424 568.12153625 1412.09133911 C565.76121771 1421.19976343 563.14050725 1430.22390463 560.46484375 1439.24389648 C558.98793056 1444.24185634 557.58382574 1449.25715123 556.19970703 1454.28149414 C552.38646757 1468.11623283 548.17856734 1481.81092716 543.87548828 1495.50024414 C542.73833879 1499.13517307 541.61642822 1502.77442959 540.5 1506.41577148 C535.56834074 1522.48259251 530.36615047 1538.44356411 525.00195312 1554.37084961 C523.69217284 1558.26808556 522.40143946 1562.17150112 521.11328125 1566.07592773 C517.34306305 1577.49212291 513.56042496 1588.89154635 509.32861328 1600.14697266 C506.90206956 1606.61940088 504.65068488 1613.14643956 502.41015625 1619.68530273 C497.74018472 1633.27112697 492.77869272 1646.73899912 487.72265625 1660.18530273 C487.28163574 1661.35996094 486.84061523 1662.53461914 486.38623047 1663.74487305 C462.36564802 1727.64395038 436.16541465 1790.68679804 408.72265625 1853.18530273 C408.41305969 1853.89044006 408.10346313 1854.59557739 407.78448486 1855.32208252 C395.41246565 1883.4815272 382.62224987 1911.46060693 369.59381104 1939.32189941 C368.68737755 1941.26076401 367.78189294 1943.20007002 366.87646484 1945.1394043 C358.59857012 1962.8616689 350.17971894 1980.50964216 341.60668945 1998.09106445 C337.91403649 2005.66485625 334.24543301 2013.24737074 330.66015625 2020.87280273 C324.26435679 2034.44517217 317.4012205 2047.76361902 310.48959351 2061.07922363 C306.05707924 2069.6209636 301.69211521 2078.19175728 297.41015625 2086.81030273 C292.83482707 2096.00735796 288.1340206 2105.12457585 283.31054688 2114.19360352 C281.37386542 2117.84244954 279.44673285 2121.49628739 277.51953125 2125.15014648 C269.98652785 2139.42517685 262.41632832 2153.67478977 254.65234375 2167.82592773 C251.26314638 2174.00882864 247.93285374 2180.2231621 244.59765625 2186.43530273 C239.50061989 2195.91747191 234.34683649 2205.36328004 229.08447266 2214.75463867 C227.53843068 2217.51412127 225.99577737 2220.27548635 224.453125 2223.03686523 C194.61563198 2276.41624851 164.23970364 2329.51625353 132.6953125 2381.90795898 C131.04899536 2384.64312746 129.40879707 2387.38184675 127.77050781 2390.12182617 C120.85121205 2401.68407901 113.83843775 2413.19010407 106.83886719 2424.70385742 C104.91632577 2427.86634128 102.99521104 2431.02969012 101.07421875 2434.19311523 C89.94142636 2452.51685517 78.79325009 2470.83325059 67.29589844 2488.93115234 C63.0812799 2495.58027137 58.96228562 2502.28646764 54.84765625 2508.99780273 C48.15337529 2519.90876601 41.33388422 2530.73261087 34.43164062 2541.51293945 C32.14062381 2545.09543518 29.85987786 2548.68441672 27.57910156 2552.2734375 C20.68108669 2563.12720907 13.75354079 2573.96197149 6.81640625 2584.79077148 C4.04094368 2589.12376931 1.27059144 2593.45997668 -1.49609375 2597.79858398 C-13.48777773 2616.593256 -13.48777773 2616.593256 -19.62915039 2625.72998047 C-22.99826311 2630.74609016 -26.30009479 2635.80433927 -29.58984375 2640.87280273 C-30.1415625 2641.72261719 -30.69328125 2642.57243164 -31.26171875 2643.44799805 C-33.96589472 2647.61588787 -36.66611166 2651.78631368 -39.36328125 2655.95874023 C-46.4545867 2666.91486886 -53.65532763 2677.79480011 -60.92260742 2688.63476562 C-64.23062053 2693.57743048 -67.51490011 2698.5280114 -70.69140625 2703.55639648 C-73.77001292 2708.4246975 -76.95062722 2713.22041292 -80.1542511 2718.00675964 C-83.65541759 2723.24169144 -87.12200586 2728.49866328 -90.578125 2733.76342773 C-104.94284556 2755.63304497 -119.4320648 2777.41145789 -134.09768677 2799.08053589 C-134.65326263 2799.90143707 -135.2088385 2800.72233826 -135.78125 2801.56811523 C-136.32731903 2802.3749173 -136.87338806 2803.18171936 -137.43600464 2804.01296997 C-143.09141499 2812.37604465 -148.68936921 2820.77707417 -154.27734375 2829.18530273 C-155.03082623 2830.31861473 -155.78432426 2831.45191639 -156.5378418 2832.58520508 C-157.84562725 2834.55232382 -159.15340756 2836.51944597 -160.46118164 2838.48657227 C-166.38987657 2847.39772049 -172.35875255 2856.27583792 -178.4453125 2865.07983398 C-181.87100894 2870.03655417 -185.26053317 2875.01786203 -188.65234375 2879.99780273 C-193.31122805 2886.83649438 -197.9760519 2893.67100301 -202.65234375 2900.49780273 C-207.75265046 2907.94463234 -212.8299345 2915.40694796 -217.90234375 2922.87280273 C-223.91481017 2931.72108702 -229.94847243 2940.55392945 -236.02099609 2949.36108398 C-237.29238409 2951.20714133 -238.56070486 2953.05526934 -239.828125 2954.90405273 C-245.96969706 2963.85946048 -252.16278021 2972.77827033 -258.36938477 2981.6887207 C-262.23251538 2987.23735588 -266.08069259 2992.79552904 -269.90234375 2998.37280273 C-275.70118981 3006.83086038 -281.58986269 3015.22552158 -287.47900391 3023.62084961 C-290.41459362 3027.80703402 -293.34575241 3031.99631782 -296.27734375 3036.18530273 C-297.44139538 3037.84807076 -298.60545789 3039.51083117 -299.76953125 3041.17358398 C-302.12982499 3044.54533805 -304.48909285 3047.91780684 -306.84765625 3051.29077148 C-308.03248832 3052.9848265 -309.21738382 3054.67883715 -310.40234375 3056.37280273 C-311.27306519 3057.61755371 -311.27306519 3057.61755371 -312.16137695 3058.88745117 C-315.91371201 3064.24777914 -319.68460807 3069.59462809 -323.46484375 3074.93530273 C-327.27778613 3080.32370124 -331.04790066 3085.73879251 -334.77734375 3091.18530273 C-338.99453031 3097.34411764 -343.27303802 3103.45647271 -347.5859375 3109.54858398 C-351.50187195 3115.0810965 -355.39376646 3120.63003622 -359.27734375 3126.18530273 C-367.62749426 3138.12456307 -376.01415934 3150.03696338 -384.49365234 3161.88476562 C-389.27572974 3168.57150437 -394.00897388 3175.29265354 -398.74511719 3182.01196289 C-401.25420927 3185.57090771 -403.76592201 3189.12800171 -406.27734375 3192.68530273 C-406.77363281 3193.38848633 -407.26992188 3194.09166992 -407.78125 3194.81616211 C-410.2552881 3198.32158492 -412.73020808 3201.82637837 -415.20703125 3205.32983398 C-416.18887463 3206.71910564 -417.17064504 3208.10842885 -418.15234375 3209.49780273 C-418.6429126 3210.19204346 -419.13348145 3210.88628418 -419.63891602 3211.6015625 C-422.33200685 3215.41666562 -425.01537426 3219.2382946 -427.6875 3223.06811523 C-433.89563009 3231.96574408 -440.15143238 3240.82184772 -446.52099609 3249.60473633 C-452.17981609 3257.41339113 -457.73128449 3265.29635376 -463.27734375 3273.18530273 C-470.51296192 3283.47755169 -477.81092842 3293.72011242 -485.1875 3303.91186523 C-490.56393233 3311.34189944 -495.89985215 3318.80072421 -501.17578125 3326.30249023 C-506.4055919 3333.73860081 -511.67355815 3341.13856578 -517.06665039 3348.45727539 C-522.30193003 3355.56382951 -527.4586681 3362.72670249 -532.62011719 3369.88696289 C-535.8762627 3374.40277814 -539.13730882 3378.91505547 -542.39746094 3383.42797852 C-545.1325049 3387.21439248 -547.86630949 3391.00168945 -550.59765625 3394.79077148 C-556.07445134 3402.38594958 -561.57152032 3409.96470895 -567.11816406 3417.5090332 C-570.65291391 3422.32184869 -574.15786021 3427.15568483 -577.65234375 3431.99780273 C-578.19342773 3432.74755371 -578.73451172 3433.49730469 -579.29199219 3434.26977539 C-582.0890498 3438.14740144 -584.88322429 3442.02709077 -587.67578125 3445.90795898 C-593.0233728 3453.33396355 -598.40688763 3460.72205756 -603.921875 3468.02514648 C-607.37940905 3472.66386132 -610.74973076 3477.36435933 -614.12890625 3482.06030273 C-618.71967859 3488.43225234 -623.37296718 3494.75625407 -628.04125977 3501.0715332 C-632.03298298 3506.47838793 -635.97914426 3511.91607443 -639.90234375 3517.37280273 C-644.44562757 3523.6896094 -649.07018187 3529.93710859 -653.75830078 3536.14697266 C-657.49766604 3541.11295281 -661.1502502 3546.13687521 -664.77734375 3551.18530273 C-669.34437038 3557.53986832 -673.98186607 3563.83336276 -678.69189453 3570.08251953 C-684.35290351 3577.59818816 -689.92177641 3585.18118451 -695.49511719 3592.76196289 C-698.41965117 3596.73852786 -701.34865581 3600.71179666 -704.27734375 3604.68530273 C-707.83766729 3609.51606331 -711.39708661 3614.34748031 -714.953125 3619.18139648 C-720.56404328 3626.80649055 -726.1890293 3634.41863641 -731.8828125 3641.98217773 C-734.97389371 3646.11706613 -738.03147681 3650.27618735 -741.08984375 3654.43530273 C-745.93964835 3661.02979079 -750.82321665 3667.59683042 -755.74633789 3674.13671875 C-759.54376329 3679.18850016 -763.28940945 3684.27690604 -767.02734375 3689.37280273 C-772.11657669 3696.30833891 -777.29619889 3703.16876524 -782.52734375 3709.99780273 C-787.41386412 3716.37720091 -792.20813151 3722.79855167 -796.83740234 3729.36669922 C-799.91337113 3733.71751642 -803.12703747 3737.95012947 -806.39257812 3742.15869141 C-811.25731302 3748.43099398 -816.00105535 3754.79290682 -820.75390625 3761.15014648 C-822.23802784 3763.13278071 -823.72571192 3765.11267969 -825.21484375 3767.09155273 C-830.52789048 3774.15494631 -835.79865437 3781.24671175 -841.02734375 3788.37280273 C-846.70063049 3796.10086282 -852.48873336 3803.73532986 -858.31542969 3811.34814453 C-863.28071489 3817.84696753 -868.14831654 3824.41138907 -872.97949219 3831.01025391 C-877.4221541 3837.06309695 -881.96108687 3843.037816 -886.52734375 3848.99780273 C-891.4155259 3855.37924158 -896.21165762 3861.80252278 -900.84179688 3868.37329102 C-903.86783496 3872.6542449 -907.03437222 3876.80967288 -910.25195312 3880.94775391 C-914.58982829 3886.5463867 -918.77274565 3892.25648225 -922.96386719 3897.96533203 C-926.70648052 3903.06056913 -930.47524776 3908.13431984 -934.27734375 3913.18530273 C-944.90645096 3927.32018791 -955.33639733 3941.59836622 -965.66845703 3955.95141602 C-968.36746514 3959.69890071 -971.07280652 3963.44180762 -973.77734375 3967.18530273 C-974.31294922 3967.9271582 -974.84855469 3968.66901367 -975.40039062 3969.43334961 C-978.11824496 3973.19779045 -980.83829106 3976.96061374 -983.5625 3980.72045898 C-989.34599292 3988.7071873 -995.08543541 3996.72138559 -1000.75585938 4004.78881836 C-1004.4063639 4009.97435764 -1008.11433647 4015.11596723 -1011.83984375 4020.24780273 C-1016.75943659 4027.03387245 -1021.55485559 4033.89266507 -1026.28125 4040.81420898 C-1029.82838462 4046.00387105 -1033.4310007 4051.15468502 -1037.02734375 4056.31030273 C-1044.27258353 4066.70740223 -1051.42361015 4077.16633764 -1058.54833984 4087.64624023 C-1060.61857654 4090.68640709 -1062.69860691 4093.7197597 -1064.77978516 4096.75244141 C-1071.59135687 4106.68107895 -1078.34255387 4116.65043014 -1085.08984375 4126.62280273 C-1085.58411865 4127.35309692 -1086.07839355 4128.08339111 -1086.58764648 4128.83581543 C-1092.51682889 4137.59754475 -1098.42084277 4146.37477514 -1104.27734375 4155.18530273 C-1106.29030021 4158.20560969 -1108.30406724 4161.22537518 -1110.31787109 4164.24511719 C-1111.51734019 4166.04491862 -1112.71582306 4167.84537841 -1113.91259766 4169.64697266 C-1121.40675685 4180.91806017 -1128.99826427 4192.12381192 -1136.57226562 4203.34130859 C-1144.1738673 4214.60074342 -1151.75640275 4225.87181899 -1159.27734375 4237.18530273 C-1160.29008543 4238.70502005 -1161.30306008 4240.22458217 -1162.31640625 4241.74389648 C-1162.74356934 4242.38472168 -1163.17073242 4243.02554688 -1163.61083984 4243.68579102 C-1164.52753644 4245.06066262 -1165.44456253 4246.43531458 -1166.36181641 4247.80981445 C-1169.37741885 4252.32990635 -1172.38515008 4256.85509605 -1175.38671875 4261.38452148 C-1176.44705322 4262.98179077 -1176.44705322 4262.98179077 -1177.52880859 4264.61132812 C-1178.91124722 4266.69388657 -1180.2918762 4268.7776478 -1181.67041016 4270.86279297 C-1184.96495043 4275.82116302 -1188.32666234 4280.68176781 -1191.93701172 4285.4152832 C-1193.92071393 4288.03492638 -1195.78683958 4290.73066844 -1197.65234375 4293.43530273 C-1198.21707397 4294.25285034 -1198.21707397 4294.25285034 -1198.79321289 4295.08691406 C-1202.14484933 4299.95495052 -1205.40787028 4304.87933816 -1208.6484375 4309.82202148 C-1210.27734375 4312.18530273 -1210.27734375 4312.18530273 -1212.27734375 4314.18530273 C-1215.92028149 4313.81011391 -1218.90404289 4312.5804427 -1222.18359375 4311.00561523 C-1223.09238281 4310.57120117 -1224.00117188 4310.13678711 -1224.9375 4309.68920898 C-1225.87464844 4309.23416992 -1226.81179687 4308.77913086 -1227.77734375 4308.31030273 C-1228.71449219 4307.86299805 -1229.65164062 4307.41569336 -1230.6171875 4306.95483398 C-1234.13512464 4305.26323017 -1237.59407153 4303.59877968 -1240.93603516 4301.57641602 C-1243.38884364 4300.11905389 -1245.3772492 4299.54046354 -1248.15234375 4298.93530273 C-1252.76993409 4297.75411512 -1256.87778795 4296.09507879 -1261.1796875 4294.04858398 C-1262.15322929 4293.58730858 -1262.15322929 4293.58730858 -1263.1464386 4293.11671448 C-1265.19269697 4292.14496952 -1267.23535446 4291.1659829 -1269.27734375 4290.18530273 C-1269.91893433 4289.87836487 -1270.5605249 4289.571427 -1271.22155762 4289.25518799 C-1281.6006636 4284.28825738 -1291.93969746 4279.23780727 -1302.27734375 4274.18530273 C-1302.92773621 4273.86783081 -1303.57812866 4273.55035889 -1304.24822998 4273.2232666 C-1320.92060896 4265.08192408 -1337.22374573 4256.48784148 -1353.27734375 4247.18530273 C-1355.85855619 4245.70241658 -1358.44274134 4244.22477003 -1361.02734375 4242.74780273 C-1362.10757813 4242.12905273 -1363.1878125 4241.51030273 -1364.30078125 4240.87280273 C-1367.0702473 4239.30271175 -1369.8544061 4237.76644736 -1372.65234375 4236.24780273 C-1387.32863435 4228.27340206 -1401.66807458 4219.8092539 -1415.96777344 4211.17895508 C-1419.2674858 4209.19124107 -1422.57221056 4207.21215591 -1425.87890625 4205.23608398 C-1441.09336153 4196.14212407 -1456.16716277 4186.87238467 -1471.05859375 4177.25952148 C-1473.89523165 4175.43154245 -1476.73982774 4173.6173159 -1479.58984375 4171.81030273 C-1481.48631194 4170.60296605 -1483.38209672 4169.39455546 -1485.27734375 4168.18530273 C-1486.36660156 4167.49049805 -1487.45585937 4166.79569336 -1488.578125 4166.07983398 C-1503.01490952 4156.82220776 -1517.23982004 4147.23975042 -1531.49755859 4137.70996094 C-1533.89214447 4136.10976678 -1536.28810268 4134.51167861 -1538.68603516 4132.91650391 C-1544.16064449 4129.27405012 -1549.61757624 4125.61088243 -1555.02734375 4121.87280273 C-1556.39711897 4120.92876846 -1557.76691113 4119.98475876 -1559.13671875 4119.04077148 C-1559.82185547 4118.56816895 -1560.50699219 4118.09556641 -1561.21289062 4117.60864258 C-1563.90204934 4115.75459867 -1566.59366856 4113.90414938 -1569.28564453 4112.05419922 C-1570.6176166 4111.13873374 -1571.94932077 4110.22287838 -1573.28076172 4109.30664062 C-1576.58508134 4107.03305944 -1579.89248141 4104.76426069 -1583.20703125 4102.50561523 C-1590.98094727 4097.19986933 -1598.65530566 4091.77649544 -1606.26928711 4086.24365234 C-1612.0411223 4082.05692186 -1617.86605293 4077.95120493 -1623.71484375 4073.87280273 C-1629.74385593 4069.66801467 -1635.74410755 4065.43467595 -1641.671875 4061.08764648 C-1644.71168528 4058.86817481 -1647.77425949 4056.68142412 -1650.83984375 4054.49780273 C-1656.27406973 4050.62600143 -1661.68534266 4046.72346744 -1667.08984375 4042.81030273 C-1675.07296645 4037.0347371 -1683.10862659 4031.3370461 -1691.16845703 4025.66918945 C-1695.41776451 4022.67922756 -1699.66064808 4019.68015529 -1703.90478516 4016.68286133 C-1707.43185694 4014.19244899 -1710.96035875 4011.70412154 -1714.4921875 4009.22045898 C-1721.72575296 4004.13007912 -1728.92945122 3999.00319296 -1736.08984375 3993.81030273 C-1744.94544133 3987.3907172 -1753.90415481 3981.12389611 -1762.87402344 3974.86547852 C-1766.57908905 3972.27524471 -1770.27281046 3969.66906535 -1773.96484375 3967.06030273 C-1774.65384766 3966.57368164 -1775.34285156 3966.08706055 -1776.05273438 3965.58569336 C-1779.55381004 3963.11221469 -1783.05296444 3960.63604358 -1786.55078125 3958.15795898 C-1794.8938009 3952.25163982 -1803.27857736 3946.41254139 -1811.7109375 3940.63452148 C-1814.57857102 3938.66850855 -1817.43276043 3936.68458417 -1820.27734375 3934.68530273 C-1826.54930539 3930.28024607 -1832.87483202 3925.95308946 -1839.19384766 3921.6159668 C-1841.19511329 3920.24176752 -1843.19542903 3918.8662 -1845.1953125 3917.48999023 C-1859.2608215 3907.81110879 -1873.35506662 3898.17452038 -1887.46484375 3888.56030273 C-1893.74453144 3884.28140565 -1900.0189618 3879.99530527 -1906.27734375 3875.68530273 C-1922.06580352 3864.81640635 -1937.93018865 3854.05915312 -1953.80300903 3843.31402588 C-1962.82660441 3837.20529743 -1971.83975693 3831.08176336 -1980.83837891 3824.9362793 C-1988.24456066 3819.88168037 -1995.66862672 3814.85373023 -2003.0944519 3809.82806396 C-2013.60513073 3802.71453854 -2024.10847754 3795.59233834 -2034.54980469 3788.37719727 C-2036.35520144 3787.13158577 -2038.16352635 3785.89032907 -2039.97265625 3784.65014648 C-2056.81456995 3773.10244801 -2073.57067223 3761.43092626 -2090.23583984 3749.62963867 C-2092.35876233 3748.12770021 -2094.48376837 3746.62875229 -2096.609375 3745.13061523 C-2104.95823447 3739.24598126 -2113.28800362 3733.33589268 -2121.59326172 3727.38989258 C-2123.26928556 3726.19106659 -2124.94686706 3724.99445546 -2126.625 3723.79858398 C-2134.64923896 3718.07889627 -2142.64454137 3712.3198831 -2150.62890625 3706.54467773 C-2153.70353409 3704.32102837 -2156.78174861 3702.10249775 -2159.86328125 3699.88842773 C-2167.81495532 3694.17038915 -2175.70837291 3688.38850011 -2183.52661133 3682.48925781 C-2187.67246789 3679.3681503 -2191.85654008 3676.31157583 -2196.08984375 3673.31030273 C-2208.53242673 3664.48239495 -2220.77263674 3655.38474533 -2232.86254883 3646.08056641 C-2238.11755086 3642.04609672 -2243.43412975 3638.10200135 -2248.77734375 3634.18530273 C-2256.40055079 3628.59650271 -2263.92994149 3622.89651126 -2271.42578125 3617.13842773 C-2277.2592615 3612.65817758 -2283.15242915 3608.2576999 -2289.05126953 3603.86401367 C-2299.12884538 3596.3560501 -2309.08864143 3588.70970811 -2318.99072266 3580.97192383 C-2322.77080005 3578.01841045 -2326.5546503 3575.06975549 -2330.33984375 3572.12280273 C-2331.07968506 3571.54651123 -2331.81952637 3570.97021973 -2332.58178711 3570.37646484 C-2337.76822636 3566.34256765 -2342.98618154 3562.35174119 -2348.21484375 3558.37280273 C-2353.74956652 3554.15745448 -2359.19083413 3549.85661281 -2364.55078125 3545.41967773 C-2367.69800753 3542.8405754 -2370.88744663 3540.32032527 -2374.08984375 3537.81030273 C-2374.6813623 3537.34648193 -2375.27288086 3536.88266113 -2375.88232422 3536.40478516 C-2378.8125443 3534.1096182 -2381.74669374 3531.81956964 -2384.68359375 3529.53295898 C-2391.87090511 3523.92571938 -2398.93954645 3518.19200098 -2405.96020508 3512.37744141 C-2410.35097515 3508.74864431 -2414.78243393 3505.18408191 -2419.27734375 3501.68530273 C-2426.66963197 3495.92558888 -2433.88689402 3489.96048834 -2441.10400391 3483.98364258 C-2444.65633782 3481.04424788 -2448.21725987 3478.11530144 -2451.77734375 3475.18530273 C-2453.18882074 3474.02256497 -2454.60027904 3472.85980451 -2456.01171875 3471.69702148 C-2458.89516753 3469.32222156 -2461.7808227 3466.95013734 -2464.66796875 3464.57983398 C-2471.73629893 3458.77364931 -2478.7788032 3452.94261562 -2485.74707031 3447.01660156 C-2489.06096937 3444.20207856 -2492.40565956 3441.43026176 -2495.77734375 3438.68530273 C-2502.58148161 3433.14338175 -2509.25710253 3427.4522135 -2515.94335938 3421.76928711 C-2521.49802409 3417.05010663 -2527.057943 3412.34455224 -2532.71484375 3407.74780273 C-2539.95950132 3401.84708164 -2547.01224378 3395.72379052 -2554.08886719 3389.6237793 C-2555.87992632 3388.08069807 -2557.67196889 3386.53877388 -2559.46484375 3384.99780273 C-2560.04693604 3384.49748535 -2560.62902832 3383.99716797 -2561.22875977 3383.48168945 C-2564.78664655 3380.43379152 -2568.38680991 3377.44709597 -2572.02734375 3374.49780273 C-2576.40386002 3370.94668207 -2580.58565835 3367.22732876 -2584.75 3363.43139648 C-2587.34696768 3361.12342676 -2590.01138388 3358.92974411 -2592.71484375 3356.74780273 C-2597.48874675 3352.88705136 -2602.01122803 3348.81093198 -2606.52734375 3344.65405273 C-2609.21472009 3342.2415217 -2611.96699819 3339.95274063 -2614.77734375 3337.68530273 C-2619.59501125 3333.7954314 -2624.17841527 3329.70079762 -2628.73828125 3325.51342773 C-2633.23775595 3321.38775555 -2637.8507923 3317.39924801 -2642.49609375 3313.43920898 C-2649.03490593 3307.8619603 -2655.49261599 3302.22799841 -2661.828125 3296.41967773 C-2664.59963899 3293.89127901 -2667.41861378 3291.42346273 -2670.25 3288.96264648 C-2672.61223548 3286.89170787 -2674.94530228 3284.79017426 -2677.27734375 3282.68530273 C-2680.25797096 3279.99546843 -2683.24979608 3277.32219909 -2686.27734375 3274.68530273 C-2690.17663701 3271.28914409 -2694.01363475 3267.8262843 -2697.8515625 3264.36108398 C-2699.91437163 3262.5108671 -2701.99446745 3260.68585465 -2704.08984375 3258.87280273 C-2708.2577018 3255.24381926 -2712.30332739 3251.48701303 -2716.35644531 3247.73120117 C-2720.4512247 3243.9392131 -2724.5855024 3240.19457848 -2728.7421875 3236.47045898 C-2731.64647641 3233.85257145 -2734.5250515 3231.2077707 -2737.40234375 3228.56030273 C-2740.63945404 3225.58305454 -2743.88872295 3222.62577252 -2747.21484375 3219.74780273 C-2751.3487886 3216.1639046 -2755.35152765 3212.44304666 -2759.36352539 3208.72412109 C-2762.60196643 3205.72449351 -2765.86026215 3202.75122896 -2769.15234375 3199.81030273 C-2774.01118304 3195.45545974 -2778.7772059 3191.00522902 -2783.54077148 3186.546875 C-2787.58348935 3182.76363708 -2791.64073633 3178.99719923 -2795.71484375 3175.24780273 C-2801.89442646 3169.5558813 -2808.02528407 3163.812823 -2814.1484375 3158.06030273 C-2816.92687379 3155.45027653 -2819.71106051 3152.84660191 -2822.5 3150.24780273 C-2829.07393246 3144.11607337 -2835.60723172 3137.97989572 -2841.87109375 3131.52905273 C-2843.88346549 3129.56895039 -2845.93210918 3127.73622853 -2848.05859375 3125.90405273 C-2853.05590091 3121.56808539 -2857.64729212 3116.86672256 -2862.27734375 3112.14624023 C-2866.15273422 3108.22543503 -2870.1323046 3104.52855178 -2874.30859375 3100.93139648 C-2878.27406832 3097.41439821 -2881.92593769 3093.57568577 -2885.6328125 3089.79077148 C-2888.67247163 3086.71287765 -2891.74161059 3083.74235902 -2895.03125 3080.93139648 C-2899.20261167 3077.30154546 -2903.11216206 3073.46215718 -2906.99609375 3069.52905273 C-2907.69827026 3068.8230896 -2908.40044678 3068.11712646 -2909.12390137 3067.38977051 C-2912.09118141 3064.40632898 -2915.05239738 3061.41689563 -2918.01416016 3058.42797852 C-2920.1935284 3056.23039695 -2922.37599322 3054.03592336 -2924.55859375 3051.84155273 C-2925.54176575 3050.84593323 -2925.54176575 3050.84593323 -2926.5447998 3049.8302002 C-2930.41740746 3045.93742399 -2934.40419928 3042.24998342 -2938.57897949 3038.68237305 C-2941.36031277 3036.23068964 -2943.65608816 3033.42859067 -2946.02734375 3030.59155273 C-2947.81225196 3028.68269257 -2949.53488994 3027.09334705 -2951.52319336 3025.42138672 C-2958.19464865 3019.61457412 -2964.34844488 3013.25779711 -2970.59375 3007.00170898 C-2971.97787656 3005.61825734 -2973.36215143 3004.23495405 -2974.74656677 3002.85179138 C-2977.63695217 2999.96287412 -2980.52553715 2997.07217197 -2983.4128418 2994.18017578 C-2987.0965842 2990.49073666 -2990.78479863 2986.80580598 -2994.47438145 2983.1222086 C-2997.33050668 2980.26971292 -3000.18422613 2977.41481996 -3003.0372448 2974.55921745 C-3004.39555607 2973.20024353 -3005.75459828 2971.84199974 -3007.11441231 2970.4845295 C-3019.30946588 2958.30589038 -3019.30946588 2958.30589038 -3024.62266541 2952.06236267 C-3028.18503485 2948.02122622 -3032.07635285 2944.28690194 -3035.90234375 2940.49780273 C-3036.80807129 2939.59586182 -3037.71379883 2938.6939209 -3038.64697266 2937.76464844 C-3041.52133944 2934.9024171 -3044.39881315 2932.04334471 -3047.27734375 2929.18530273 C-3051.07209713 2925.41755941 -3054.86315756 2921.64614728 -3058.65234375 2917.87280273 C-3059.5129541 2917.02049072 -3060.37356445 2916.16817871 -3061.26025391 2915.29003906 C-3065.60838352 2910.95947333 -3069.78535365 2906.55745708 -3073.78466797 2901.90283203 C-3075.65106223 2899.75528809 -3077.62343615 2897.74172917 -3079.65234375 2895.74780273 C-3080.4103125 2894.99756836 -3081.16828125 2894.24733398 -3081.94921875 2893.47436523 C-3083.10164063 2892.3412793 -3083.10164063 2892.3412793 -3084.27734375 2891.18530273 C-3092.84342047 2882.76295214 -3092.84342047 2882.76295214 -3096.71484375 2878.24780273 C-3100.97040158 2873.29605917 -3105.62861023 2868.76465217 -3110.27734375 2864.18530273 C-3115.64002352 2858.90266296 -3120.88781834 2853.61244537 -3125.7890625 2847.89624023 C-3127.68440932 2845.71733759 -3129.70517924 2843.69561158 -3131.77734375 2841.68530273 C-3135.20617165 2838.30288875 -3138.39782893 2834.80459831 -3141.53125 2831.15014648 C-3144.00215764 2828.36968442 -3146.65901315 2825.79412056 -3149.30859375 2823.18530273 C-3151.83159834 2820.62225045 -3154.15297192 2817.91184449 -3156.49609375 2815.18530273 C-3158.97991803 2812.3964474 -3161.64445812 2809.8084329 -3164.3046875 2807.18920898 C-3166.85072204 2804.60284122 -3169.19755932 2801.86994993 -3171.5625 2799.11889648 C-3173.74906454 2796.65340799 -3176.08404336 2794.36553546 -3178.43530273 2792.05859375 C-3180.20539483 2790.25847225 -3181.85918395 2788.404646 -3183.50390625 2786.48999023 C-3187.27417729 2782.15348071 -3191.19575571 2777.97643564 -3195.15234375 2773.81030273 C-3200.1945439 2768.47787088 -3205.19128285 2763.11775275 -3210.07421875 2757.63842773 C-3212.77921554 2754.62648095 -3215.52664766 2751.65547154 -3218.27734375 2748.68530273 C-3223.32701519 2743.22918077 -3228.31751338 2737.72332827 -3233.27734375 2732.18530273 C-3234.77690994 2730.51824574 -3236.27691428 2728.85158278 -3237.77734375 2727.18530273 C-3246.77734375 2717.18530274 -3246.77734375 2717.18530274 -3249.01953125 2714.69311523 C-3250.54442619 2712.99937379 -3252.07049777 2711.30669105 -3253.59765625 2709.61499023 C-3257.59224274 2705.18709267 -3261.55468467 2700.73572721 -3265.47265625 2696.23999023 C-3269.76996559 2691.34738263 -3274.14428828 2686.52133061 -3278.53515625 2681.71264648 C-3282.34614468 2677.52321496 -3286.03981579 2673.28635101 -3289.58984375 2668.87280273 C-3293.47990306 2664.05944837 -3297.60606209 2659.53768823 -3301.83300781 2655.02416992 C-3305.75612968 2650.81137132 -3309.39630789 2646.42134922 -3313 2641.93139648 C-3315.49561001 2638.92211032 -3318.11502842 2636.04594884 -3320.77734375 2633.18530273 C-3325.08736147 2628.5528733 -3329.12795999 2623.76407474 -3333.09765625 2618.83374023 C-3335.25491774 2616.21255155 -3337.49045375 2613.69375993 -3339.77734375 2611.18530273 C-3343.59905238 2606.9880124 -3347.19208564 2602.64820043 -3350.76171875 2598.23608398 C-3353.7065953 2594.66473525 -3356.73457573 2591.17321482 -3359.77734375 2587.68530273 C-3364.29537927 2582.50262092 -3368.71661389 2577.26055659 -3373.04296875 2571.91577148 C-3375.53893098 2568.86563583 -3378.09277965 2565.86948574 -3380.65234375 2562.87280273 C-3384.45345105 2558.41466487 -3388.12332265 2553.87617138 -3391.71484375 2549.24780273 C-3395.9904334 2543.73965215 -3400.44762365 2538.42217545 -3405.00976562 2533.14990234 C-3408.46835708 2529.14767338 -3411.81783351 2525.07830324 -3415.09765625 2520.92749023 C-3417.89769502 2517.40486081 -3420.74540345 2513.92210251 -3423.58984375 2510.43530273 C-3428.25238576 2504.71269412 -3432.84818351 2498.9434705 -3437.39160156 2493.12597656 C-3440.16162204 2489.58543649 -3442.97851415 2486.09047363 -3445.83984375 2482.62280273 C-3449.43693012 2478.25400103 -3452.90475787 2473.79719269 -3456.33837891 2469.30004883 C-3459.57555991 2465.07100845 -3462.88019991 2460.90031749 -3466.21484375 2456.74780273 C-3474.68325628 2446.1966841 -3483.02061795 2435.5550156 -3491.22143555 2424.79443359 C-3495.28995764 2419.46084321 -3499.40059788 2414.1614317 -3503.52734375 2408.87280273 C-3508.13195712 2402.96908214 -3512.67591257 2397.02969653 -3517.1484375 2391.02514648 C-3519.4355353 2387.97428391 -3521.75853494 2384.95237133 -3524.08984375 2381.93530273 C-3534.08976358 2368.97467569 -3543.79900658 2355.79715348 -3553.49511719 2342.60864258 C-3555.83866749 2339.42205624 -3558.18517108 2336.23765191 -3560.53198242 2333.0534668 C-3561.69640767 2331.47353605 -3562.86063266 2329.89345768 -3564.0246582 2328.31323242 C-3566.95128817 2324.34023929 -3569.87994488 2320.36876855 -3572.8125 2316.40014648 C-3583.28039227 2302.22783008 -3593.63411276 2287.98016425 -3603.76708984 2273.56616211 C-3607.31086241 2268.53240742 -3610.90939891 2263.540922 -3614.52734375 2258.56030273 C-3624.61476947 2244.65220712 -3634.34655826 2230.48977929 -3644.05737305 2216.31713867 C-3647.38968119 2211.4591434 -3650.75760437 2206.6266068 -3654.13037109 2201.79663086 C-3661.18450483 2191.69049783 -3668.12579588 2181.52222152 -3674.91894531 2171.23901367 C-3677.11221779 2167.92308843 -3679.3203908 2164.61713087 -3681.52734375 2161.31030273 C-3682.34899963 2160.07725734 -3683.17061543 2158.84418522 -3683.9921875 2157.61108398 C-3685.39792779 2155.50218154 -3686.8069748 2153.39565162 -3688.21875 2151.29077148 C-3693.45370764 2143.47658628 -3698.57629384 2135.59137091 -3703.6953125 2127.70092773 C-3706.19207499 2123.85334381 -3708.69528849 2120.01005289 -3711.203125 2116.16967773 C-3711.86111084 2115.16203369 -3712.51909668 2114.15438965 -3713.19702148 2113.11621094 C-3714.46037478 2111.18213992 -3715.72417786 2109.24836261 -3716.98852539 2107.31494141 C-3720.55289121 2101.85674667 -3724.07820979 2096.37566581 -3727.57128906 2090.87158203 C-3729.19516234 2088.314702 -3730.82664715 2085.76287724 -3732.4609375 2083.21264648 C-3739.49554881 2072.21776968 -3746.406477 2061.15363035 -3753.22851562 2050.02563477 C-3757.85002342 2042.49051909 -3762.51806617 2034.98620118 -3767.21484375 2027.49780273 C-3772.67401737 2018.78659468 -3778.02710733 2010.02353856 -3783.27734375 2001.18530273 C-3784.32808532 1999.43505898 -3785.3814417 1997.68640532 -3786.43481445 1995.93774414 C-3800.38618372 1972.76132422 -3814.11228275 1949.43811431 -3827.36743164 1925.85644531 C-3831.96701388 1917.69024084 -3836.67925131 1909.59236034 -3841.43359375 1901.51538086 C-3846.97736736 1892.07261754 -3852.15985435 1882.45913272 -3857.21484375 1872.74780273 C-3859.99738551 1867.42388672 -3862.82202907 1862.15750605 -3865.90234375 1856.99780273 C-3868.46084336 1852.6940621 -3870.76031476 1848.30295003 -3872.96484375 1843.81030273 C-3876.19244212 1837.23515065 -3879.62608741 1830.79249777 -3883.15234375 1824.37280273 C-3886.99267454 1817.37698706 -3890.8067345 1810.37065414 -3894.52734375 1803.31030273 C-3894.89069824 1802.62347412 -3895.25405273 1801.93664551 -3895.62841797 1801.22900391 C-3898.86893881 1795.05880527 -3901.97277876 1788.82046502 -3905.08251953 1782.58374023 C-3907.32262286 1778.09121496 -3909.57505361 1773.60492812 -3911.828125 1769.11889648 C-3919.96441737 1752.90650259 -3928.09108108 1736.69592969 -3935.81640625 1720.2824707 C-3937.19317234 1717.36374501 -3938.57829536 1714.44915991 -3939.96568298 1711.53547668 C-3949.1193835 1692.30178171 -3957.93127535 1672.93497141 -3966.51582336 1653.44096375 C-3968.4561156 1649.03694277 -3970.41313261 1644.64094916 -3972.38671875 1640.25170898 C-3991.22131033 1598.33819964 -4008.05505389 1555.61027239 -4024.58984375 1512.74780273 C-4024.89076935 1511.96921906 -4025.19169495 1511.19063538 -4025.5017395 1510.38845825 C-4029.39120929 1500.31306279 -4033.1012293 1490.1875874 -4036.65023804 1479.98727417 C-4037.4688993 1477.634873 -4038.29542329 1475.28525142 -4039.12109375 1472.93530273 C-4040.95762863 1467.67793314 -4042.77953402 1462.41551449 -4044.59777832 1457.15179443 C-4045.07651191 1455.76645963 -4045.55563305 1454.38125872 -4046.03503418 1452.99615479 C-4054.16529554 1429.5053883 -4062.07833591 1405.97907457 -4069.27734375 1382.18530273 C-4069.49392639 1381.47132324 -4069.71050903 1380.75734375 -4069.93365479 1380.02172852 C-4081.21199674 1342.83495134 -4091.44948623 1305.45562049 -4100.66210938 1267.70294189 C-4101.23696411 1265.35054281 -4101.8151309 1262.99898801 -4102.39453125 1260.64770508 C-4116.18395056 1204.58154186 -4126.04681289 1147.45030818 -4133.27734375 1090.18530273 C-4133.38800171 1089.31524597 -4133.49865967 1088.44518921 -4133.6126709 1087.54876709 C-4136.66416792 1063.45925725 -4138.85134941 1039.34634829 -4140.52734375 1015.12280273 C-4140.61042786 1013.93097382 -4140.69351196 1012.7391449 -4140.77911377 1011.51119995 C-4142.71574277 983.36778025 -4143.48593211 955.26453713 -4143.46484375 927.06030273 C-4143.46472416 926.34596825 -4143.46460457 925.63163376 -4143.46448135 924.89565277 C-4143.45929281 900.27924135 -4142.97562522 875.75010551 -4141.27734375 851.18530273 C-4141.2009668 850.04871216 -4141.2009668 850.04871216 -4141.12304688 848.88916016 C-4135.37335535 763.4898653 -4119.11355695 676.73857282 -4084.27734375 590.18530273 C-4083.62491324 588.54444305 -4082.97479907 586.90265834 -4082.328125 585.25952148 C-4067.94913717 548.90540633 -4067.94913717 548.90540633 -4059.35546875 532.27514648 C-4057.27414326 528.23319616 -4055.34737333 524.12382623 -4053.41503906 520.0090332 C-4047.50826492 507.45765774 -4041.09724713 495.26271703 -4034.27734375 483.18530273 C-4033.68373047 482.13375 -4033.09011719 481.08219727 -4032.47851562 479.9987793 C-4021.47081151 460.5717311 -4009.81478637 441.65896038 -3997.27734375 423.18530273 C-3996.85130859 422.55591797 -3996.42527344 421.9265332 -3995.98632812 421.27807617 C-3985.29281785 405.5071288 -3974.23232709 390.02751201 -3962.27734375 375.18530273 C-3961.76171875 374.54351074 -3961.24609375 373.90171875 -3960.71484375 373.24047852 C-3953.83249304 364.68510445 -3946.86275505 356.20862832 -3939.71923828 347.86987305 C-3938.7104008 346.69124477 -3937.70374262 345.51074923 -3936.69873047 344.32885742 C-3930.60145825 337.16134823 -3924.48711657 330.14626853 -3917.69140625 323.62670898 C-3915.74877226 321.66207105 -3913.95674599 319.67719251 -3912.16015625 317.58374023 C-3907.96261573 312.74489314 -3903.48279369 308.20467395 -3898.95410156 303.67675781 C-3897.53814428 302.25861989 -3896.13036086 300.83233609 -3894.72265625 299.40600586 C-3889.29131616 293.96331896 -3883.71537887 288.9205846 -3877.67871094 284.15576172 C-3875.39145712 282.27893928 -3873.33070022 280.31250896 -3871.27734375 278.18530273 C-3867.1114303 273.91020204 -3862.56733118 270.21933217 -3857.90673828 266.49829102 C-3856.1405423 265.07506627 -3854.39369511 263.63021191 -3852.6484375 262.18139648 C-3843.53413629 254.64114326 -3834.15063978 247.58896327 -3824.49462891 240.75854492 C-3822.36567495 239.24797684 -3820.24798618 237.72289758 -3818.1328125 236.19311523 C-3793.20504401 218.24833112 -3766.67201433 203.01584106 -3739.27734375 189.18530273 C-3737.82448975 188.45077881 -3737.82448975 188.45077881 -3736.34228516 187.70141602 C-3703.53731379 171.24194899 -3668.86135766 157.85564134 -3633.2890625 148.70922852 C-3631.17474008 148.15858095 -3629.06993351 147.57879999 -3626.96484375 146.99389648 C-3595.97831979 138.46605027 -3564.35113517 133.12094597 -3532.40234375 129.93530273 C-3531.57061646 129.85221863 -3530.73888916 129.76913452 -3529.88195801 129.68353271 C-3527.45435598 129.4441654 -3525.02622788 129.21148479 -3522.59765625 128.98217773 C-3521.90888397 128.91574066 -3521.22011169 128.84930359 -3520.51046753 128.78085327 C-3506.91361415 127.53734945 -3493.33487879 127.02094849 -3479.6875 126.98217773 C-3478.14458184 126.97515215 -3476.60166396 126.96806537 -3475.05874634 126.96092224 C-3470.1524412 126.94152348 -3465.24618337 126.93648758 -3460.33984375 126.93530273 C-3459.08462606 126.93463995 -3459.08462606 126.93463995 -3457.80405045 126.93396378 C-3431.52832362 126.92669118 -3405.4193418 127.26705514 -3379.27734375 130.18530273 C-3378.48823608 130.27251587 -3377.69912842 130.359729 -3376.8861084 130.44958496 C-3333.54861077 135.28997852 -3290.95001827 143.6933083 -3248.65234375 154.18530273 C-3247.65780182 154.43056702 -3246.66325989 154.6758313 -3245.63858032 154.92852783 C-3231.91047167 158.32543975 -3218.3846978 162.1866802 -3204.88162231 166.38562012 C-3201.7884558 167.33542308 -3198.68370934 168.23952833 -3195.57441711 169.13482666 C-3185.85002516 171.93507158 -3176.27981144 175.13552121 -3166.71484375 178.43530273 C-3165.88397247 178.72109192 -3165.0531012 179.0068811 -3164.197052 179.30133057 C-3127.85203814 191.81281466 -3092.16252354 206.03677822 -3057.27734375 222.18530273 C-3056.24809784 222.66060425 -3056.24809784 222.66060425 -3055.19805908 223.14550781 C-3038.67969804 230.77503335 -3022.26013144 238.48942469 -3006.24658203 247.13989258 C-3003.06259934 248.83017449 -2999.82546012 250.40934953 -2996.58984375 251.99780273 C-2977.76427057 261.30657403 -2959.50746178 271.77277413 -2941.27734375 282.18530273 C-2940.24883301 282.77037598 -2939.22032227 283.35544922 -2938.16064453 283.95825195 C-2922.77219653 292.71768518 -2907.61502096 301.79783747 -2892.57568359 311.14282227 C-2889.1879237 313.24067566 -2885.79106602 315.3229517 -2882.390625 317.40014648 C-2881.24019681 318.1039425 -2880.08980588 318.80779944 -2878.93945312 319.51171875 C-2876.80003107 320.82016557 -2874.65951414 322.12682497 -2872.51757812 323.43115234 C-2864.99186742 328.04413881 -2857.64581762 332.8917419 -2850.32131958 337.81433105 C-2846.72149422 340.2288697 -2843.10985469 342.62564087 -2839.5 345.02514648 C-2837.21443676 346.54630499 -2834.92911843 348.06783097 -2832.64379883 349.58935547 C-2831.10989526 350.61027826 -2829.5757162 351.63078726 -2828.04125977 352.65087891 C-2814.54800218 361.62196308 -2801.12645263 370.69549251 -2787.90234375 380.06030273 C-2787.21084229 380.54950195 -2786.51934082 381.03870117 -2785.80688477 381.54272461 C-2772.74987227 390.79773448 -2759.81860299 400.20739268 -2747.046875 409.85229492 C-2744.50676253 411.76579024 -2741.95320599 413.66117178 -2739.40234375 415.56030273 C-2732.7552111 420.54339129 -2726.21347476 425.6607975 -2719.6640625 430.77124023 C-2716.01073842 433.61996786 -2712.335861 436.43826287 -2708.65234375 439.24780273 C-2701.67502337 444.60208019 -2694.87445421 450.16793156 -2688.06347656 455.73120117 C-2685.70930099 457.64774979 -2683.33896587 459.54354193 -2680.96484375 461.43530273 C-2672.9106396 467.86524238 -2664.96819459 474.41920739 -2657.1184082 481.09643555 C-2653.66651288 484.02755094 -2650.17547708 486.90219504 -2646.65234375 489.74780273 C-2641.94735423 493.57316378 -2637.48365392 497.61452926 -2633.0234375 501.72045898 C-2630.35859209 504.11237571 -2627.6290255 506.37785157 -2624.83984375 508.62280273 C-2620.30709977 512.27865741 -2616.02421523 516.12623256 -2611.7668457 520.0925293 C-2608.45584058 523.15809576 -2605.04865459 526.04699942 -2601.52734375 528.87280273 C-2597.47054684 532.13802952 -2593.78022471 535.57220941 -2590.15234375 539.30249023 C-2587.74494353 541.71992129 -2585.18638393 543.92197346 -2582.6015625 546.14624023 C-2579.07201827 549.24274795 -2575.64246263 552.44553034 -2572.20092773 555.63916016 C-2568.88389685 558.71361009 -2565.53612751 561.74658051 -2562.15234375 564.74780273 C-2557.62549443 568.79698127 -2553.35332458 573.0674516 -2549.11328125 577.41186523 C-2547.03303 579.44627073 -2544.96304135 581.32825593 -2542.75390625 583.20874023 C-2535.99275593 589.06479195 -2529.83301841 595.57554715 -2523.54980469 601.93334961 C-2521.85696387 603.64447581 -2520.16096838 605.35243244 -2518.46484375 607.06030273 C-2517.71134644 607.82624756 -2517.71134644 607.82624756 -2516.94262695 608.60766602 C-2514.17063934 611.39818477 -2511.32344791 614.04583802 -2508.34790039 616.61914062 C-2504.38814968 620.04836631 -2500.65776353 623.65989938 -2496.9609375 627.36889648 C-2496.3007814 628.02809586 -2495.64062531 628.68729523 -2494.96046448 629.36647034 C-2493.57698869 630.74927108 -2492.19475292 632.13331349 -2490.8137207 633.51855469 C-2488.72002706 635.61760616 -2486.62104501 637.71126213 -2484.52148438 639.80444336 C-2483.16764804 641.15894059 -2481.814122 642.51374805 -2480.4609375 643.86889648 C-2479.84407578 644.48373398 -2479.22721405 645.09857147 -2478.59165955 645.73204041 C-2474.85363679 649.48988983 -2471.32242441 653.37535797 -2467.85585022 657.38441467 C-2465.95440215 659.55374067 -2463.95952313 661.60109197 -2461.90234375 663.62280273 C-2461.144375 664.37303711 -2460.38640625 665.12327148 -2459.60546875 665.89624023 C-2458.45304687 667.02932617 -2458.45304687 667.02932617 -2457.27734375 668.18530273 C-2452.32437187 673.05517106 -2447.51339929 677.95612089 -2442.984375 683.22436523 C-2440.01399857 686.63655967 -2436.88924371 689.90261121 -2433.77734375 693.18530273 C-2432.36967411 694.67607716 -2430.96212502 696.16696541 -2429.5546875 697.65795898 C-2428.84554199 698.40835449 -2428.13639648 699.15875 -2427.40576172 699.93188477 C-2417.43906598 710.48391524 -2407.47796436 721.03160404 -2397.96484375 731.99780273 C-2395.35948817 734.99607736 -2392.67893343 737.91329988 -2389.96972656 740.81713867 C-2384.94611827 746.20382395 -2380.16774079 751.69166158 -2375.5546875 757.43920898 C-2373.05907671 760.4484961 -2370.43964244 763.32464029 -2367.77734375 766.18530273 C-2363.44689568 770.84019644 -2359.38024103 775.64991162 -2355.390625 780.60327148 C-2353.40999041 783.02323353 -2351.36970778 785.36182946 -2349.27734375 787.68530273 C-2346.45408579 790.82472121 -2343.74686256 794.0289571 -2341.08984375 797.31030273 C-2337.39038652 801.87382004 -2333.57809559 806.32237159 -2329.71484375 810.74780273 C-2325.40958166 815.68522832 -2321.20552957 820.6729465 -2317.1484375 825.81811523 C-2315.15610491 828.33868632 -2313.12777 830.82646495 -2311.08984375 833.31030273 C-2293.83500264 854.35643246 -2276.95270696 875.67795984 -2260.27734375 897.18530273 C-2259.81440918 897.7822998 -2259.35147461 898.37929687 -2258.87451172 898.99438477 C-2252.42945238 907.31508093 -2246.102717 915.72090755 -2239.80078125 924.15014648 C-2238.31665966 926.13278071 -2236.82897558 928.11267969 -2235.33984375 930.09155273 C-2220.52770193 949.78101371 -2205.94810414 969.64265491 -2191.78759766 989.80664062 C-2189.28666904 993.36194637 -2186.76611769 996.89991772 -2184.19921875 1000.40795898 C-2177.20459235 1009.97150907 -2170.51602542 1019.69662225 -2164.00878906 1029.59960938 C-2160.15903899 1035.44174803 -2156.17064796 1041.14578464 -2152.02954102 1046.78515625 C-2150.07979943 1049.45589744 -2148.21909054 1052.17250808 -2146.40234375 1054.93530273 C-2143.90482421 1058.72667885 -2141.39645042 1062.51034331 -2138.8744812 1066.28549194 C-2133.26289481 1074.68584635 -2127.69509936 1083.11440185 -2122.15234375 1091.56030273 C-2121.70190704 1092.24651703 -2121.25147034 1092.93273132 -2120.78738403 1093.63973999 C-2112.18133227 1106.75675861 -2103.68616833 1119.94081517 -2095.27734375 1133.18530273 C-2094.73819336 1134.03334473 -2094.19904297 1134.88138672 -2093.64355469 1135.75512695 C-2086.86405854 1146.4246717 -2080.1775832 1157.15019641 -2073.5390625 1167.90795898 C-2071.44733731 1171.2970127 -2069.34630677 1174.67990033 -2067.234375 1178.05639648 C-2058.50363629 1192.03894819 -2050.09762898 1206.20758393 -2041.70960999 1220.39712524 C-2039.02755683 1224.92988348 -2036.32346298 1229.44900914 -2033.609375 1233.96264648 C-2029.93538068 1240.07483569 -2026.30383175 1246.21020786 -2022.71484375 1252.37280273 C-2022.12823975 1253.37980225 -2021.54163574 1254.38680176 -2020.93725586 1255.42431641 C-2004.69434637 1283.35938472 -1988.87212102 1311.51601526 -1973.60546875 1339.99780273 C-1971.03015034 1344.79793486 -1968.42102582 1349.57820858 -1965.79516602 1354.35083008 C-1959.03809957 1366.64073352 -1952.5949225 1379.08271099 -1946.1897583 1391.55830383 C-1944.56685926 1394.71121635 -1942.92679561 1397.85355682 -1941.2565918 1400.98168945 C-1932.83538806 1416.77704122 -1924.88767617 1432.81259741 -1916.8918457 1448.82592773 C-1914.77237423 1453.07055101 -1912.64929407 1457.31335735 -1910.52524185 1461.55568981 C-1902.0069721 1478.57263445 -1893.55337475 1495.60899417 -1885.40853882 1512.80853271 C-1883.61091722 1516.58554099 -1881.77812164 1520.34515452 -1879.94140625 1524.10327148 C-1879.60732254 1524.78728027 -1879.27323883 1525.47128906 -1878.92903137 1526.17602539 C-1878.26195473 1527.54164637 -1877.59479473 1528.90722663 -1876.92755127 1530.27276611 C-1869.82210842 1544.8275659 -1862.90043093 1559.45471825 -1856.13085938 1574.16918945 C-1853.97925664 1578.83821453 -1851.8073563 1583.49776116 -1849.63671875 1588.15795898 C-1834.34864403 1621.00056522 -1834.34864403 1621.00056522 -1827.83740234 1636.06298828 C-1825.0474761 1642.50998 -1822.10712439 1648.87991197 -1819.125 1655.23950195 C-1808.17974955 1678.58402972 -1797.72354864 1702.13768888 -1787.48129272 1725.79769897 C-1785.0328939 1731.45136318 -1782.5682181 1737.09769174 -1780.09375 1742.73999023 C-1743.25905371 1826.77354448 -1709.89763136 1912.08118496 -1677.90429688 1998.05639648 C-1677.13902243 2000.11240466 -1676.3736825 2002.16838843 -1675.60827255 2004.22434616 C-1675.11047992 2005.56154945 -1674.612791 2006.89879135 -1674.11520767 2008.23607254 C-1671.10962507 2016.31181808 -1668.06738634 2024.37224869 -1664.9765625 2032.41577148 C-1661.50376832 2041.46992078 -1658.2757483 2050.59946334 -1655.11358643 2059.76611328 C-1653.76217098 2063.67566021 -1652.39208595 2067.57863797 -1651.0234375 2071.48217773 C-1650.48078237 2073.03235667 -1649.93822141 2074.58256858 -1649.39575195 2076.1328125 C-1648.23164116 2079.45886169 -1647.0673945 2082.7848633 -1645.90307617 2086.11083984 C-1643.11497145 2094.07561764 -1640.32740673 2102.04058114 -1637.5436554 2110.00688171 C-1636.35389779 2113.4115167 -1635.16367182 2116.81598785 -1633.97335815 2120.22042847 C-1633.38343221 2121.90796591 -1632.79369075 2123.59556786 -1632.20413208 2125.28323364 C-1629.28872938 2133.62779051 -1626.36612693 2141.96910516 -1623.375 2150.28686523 C-1618.23888284 2164.58221012 -1613.35766566 2178.92566307 -1608.71768188 2193.38934326 C-1604.73244649 2205.80896067 -1600.58386304 2218.16435281 -1596.33984375 2230.49780273 C-1587.27878469 2256.85900884 -1578.63791456 2283.3509003 -1570.45239258 2309.99707031 C-1567.61132885 2319.2100374 -1564.58982714 2328.35586672 -1561.51953125 2337.49462891 C-1556.82023897 2351.49012241 -1552.29148391 2365.53199104 -1548.19042969 2379.71508789 C-1546.23694942 2386.42838958 -1544.10694614 2393.0833379 -1541.95117188 2399.73413086 C-1540.20782149 2405.14467007 -1538.55856319 2410.57901829 -1536.96166992 2416.03442383 C-1536.51547175 2417.55516121 -1536.06925341 2419.07589268 -1535.62301636 2420.59661865 C-1535.39816936 2421.36352776 -1535.17332237 2422.13043686 -1534.94166183 2422.92058563 C-1533.93183891 2426.36315826 -1532.91867027 2429.80474405 -1531.90551758 2433.24633789 C-1531.50794258 2434.59737647 -1531.11038522 2435.94842023 -1530.71284485 2437.29946899 C-1530.51255487 2437.9801305 -1530.3122649 2438.66079201 -1530.10590553 2439.36207962 C-1528.78622024 2443.84706002 -1527.46675414 2448.33210492 -1526.1472826 2452.81714821 C-1524.99782566 2456.72425058 -1523.84826464 2460.63132227 -1522.69848633 2464.53833008 C-1521.57076728 2468.37039662 -1520.44331542 2472.20254169 -1519.31604576 2476.03474045 C-1518.89075903 2477.48034838 -1518.46537769 2478.92592847 -1518.03989601 2480.37147903 C-1517.44667156 2482.3869822 -1516.85379056 2484.4025861 -1516.26098633 2486.41821289 C-1515.92521072 2487.55940582 -1515.58943512 2488.70059875 -1515.2434845 2489.87637329 C-1514.24123242 2493.3089802 -1513.25648342 2496.74604288 -1512.27734375 2500.18530273 C-1512.34585037 2499.29044159 -1512.41435699 2498.39558044 -1512.48493958 2497.47360229 C-1519.56146405 2404.89464481 -1519.56146405 2404.89464481 -1521.27734375 2365.18530273 C-1521.32848328 2364.01894287 -1521.3796228 2362.85258301 -1521.43231201 2361.65087891 C-1524.6316754 2287.66637777 -1525.11252381 2213.14639328 -1521.27734375 2139.18530273 C-1521.21417969 2137.94343201 -1521.15101563 2136.70156128 -1521.0859375 2135.42205811 C-1517.87912992 2072.78025519 -1512.24834567 2010.40296603 -1504.27734375 1948.18530273 C-1504.06978455 1946.55510193 -1504.06978455 1946.55510193 -1503.85803223 1944.89196777 C-1499.35525359 1909.57859595 -1493.72433923 1874.47314713 -1487.8125 1839.37347412 C-1487.20024781 1835.72600685 -1486.59670719 1832.07715985 -1485.99542236 1828.4278717 C-1482.11128243 1804.87461305 -1477.53707051 1781.46130183 -1472.8515625 1758.0557251 C-1472.29525854 1755.27485572 -1471.74113505 1752.49356 -1471.1875 1749.7121582 C-1459.71697909 1692.17318225 -1446.15722012 1635.23364457 -1431.48046875 1578.43920898 C-1431.20083786 1577.35505203 -1430.92120697 1576.27089508 -1430.63310242 1575.15388489 C-1428.51156052 1566.97444674 -1426.22444678 1558.85023564 -1423.8671875 1550.73608398 C-1422.32882329 1545.41082703 -1420.87217451 1540.06453317 -1419.41601562 1534.71630859 C-1415.95115626 1522.00598274 -1412.25975763 1509.3925389 -1408.33203125 1496.81811523 C-1406.90435635 1492.23999219 -1405.51774118 1487.65188364 -1404.16015625 1483.05249023 C-1398.99370157 1465.54935767 -1393.39179479 1448.2361803 -1387.546875 1430.94995117 C-1386.07277971 1426.57869166 -1384.62016902 1422.200582 -1383.17089844 1417.82104492 C-1370.17296364 1378.58825909 -1355.74525962 1339.97637338 -1340.84934998 1301.43377686 C-1338.68227587 1295.82647294 -1336.51930677 1290.21766423 -1334.36695862 1284.60469055 C-1333.27189755 1281.74910483 -1332.17438698 1278.89446473 -1331.0763855 1276.04000854 C-1330.37124264 1274.20453353 -1329.66907221 1272.36791741 -1328.96704102 1270.53125 C-1326.64652787 1264.51279262 -1324.15803868 1258.62320851 -1321.44946289 1252.76953125 C-1319.64723401 1248.79606891 -1318.05597697 1244.746825 -1316.46484375 1240.68530273 C-1311.25918889 1227.55502894 -1305.92439639 1214.502278 -1299.85131836 1201.74658203 C-1297.37594174 1196.50531144 -1295.15774408 1191.1737146 -1293.02514648 1185.78442383 C-1290.66594794 1179.90084439 -1287.97208066 1174.18096167 -1285.27587891 1168.44604492 C-1283.13814727 1163.89803581 -1281.03310029 1159.33519964 -1278.9296875 1154.77124023 C-1270.06457116 1135.55927579 -1261.09230899 1116.41431239 -1251.83105469 1097.38989258 C-1249.32920655 1092.2297325 -1246.86774452 1087.05044433 -1244.40234375 1081.87280273 C-1236.88361768 1066.12656869 -1228.94077316 1050.63278575 -1220.84179688 1035.17749023 C-1219.30894752 1032.24574839 -1217.78394019 1029.31007487 -1216.26171875 1026.37280273 C-1209.97549184 1014.25186293 -1203.55046331 1002.21708594 -1196.96679688 990.25512695 C-1195.44069188 987.48211479 -1193.91748538 984.70752705 -1192.39497375 981.93254089 C-1184.66405707 967.84649409 -1176.86274871 953.80602115 -1168.83300781 939.88745117 C-1167.1487637 936.9619625 -1165.47449549 934.03088995 -1163.80078125 931.09936523 C-1154.90197941 915.54719823 -1145.70724463 900.19498395 -1136.3416748 884.92144775 C-1135.28067042 883.19072922 -1134.220762 881.45934398 -1133.16113281 879.7277832 C-1124.64240143 865.81078654 -1116.04839177 851.94480011 -1107.27734375 838.18530273 C-1106.5709375 837.07541992 -1105.86453125 835.96553711 -1105.13671875 834.82202148 C-1100.04768258 826.86797449 -1094.87963168 818.9652708 -1089.71484375 811.06030273 C-1089.00626221 809.97547607 -1088.29768066 808.89064941 -1087.56762695 807.77294922 C-1080.42897202 796.86021342 -1073.19427985 786.01628107 -1065.83984375 775.24780273 C-1065.18443604 774.2876123 -1064.52902832 773.32742188 -1063.85375977 772.33813477 C-1059.0236456 765.26702438 -1054.17459496 758.21012688 -1049.27734375 751.18530273 C-1048.77412598 750.46197754 -1048.2709082 749.73865234 -1047.75244141 748.9934082 C-1039.90946672 737.72413545 -1031.96698004 726.5345242 -1023.89941406 715.42504883 C-1022.23513381 713.12701948 -1020.57937833 710.82306061 -1018.92578125 708.51733398 C-1013.37867962 700.78910617 -1007.76190475 693.14838521 -1001.921875 685.63842773 C-998.71321223 681.48183501 -995.62799161 677.23517032 -992.52734375 672.99780273 C-986.12807196 664.26532656 -979.5206521 655.711098 -972.84228516 647.19116211 C-970.61082732 644.33099711 -968.41411551 641.4452925 -966.21484375 638.56030273 C-961.9679405 633.02540424 -957.58687608 627.60948808 -953.17260742 622.20751953 C-949.57499942 617.79995941 -946.03003407 613.35609777 -942.52734375 608.87280273 C-937.86122012 602.90620242 -933.09767488 597.02835623 -928.27734375 591.18530273 C-927.18202712 589.85088442 -926.0869961 588.51623164 -924.9921875 587.18139648 C-919.08427466 579.98438096 -913.14973545 572.81411893 -907.11425781 565.72363281 C-904.2477456 562.35085927 -901.43788347 558.93763158 -898.65234375 555.49780273 C-894.36589932 550.23159958 -889.84372 545.20831661 -885.27734375 540.18530273 C-881.62164923 536.08499672 -878.05290361 531.91959963 -874.52978516 527.70483398 C-868.95781568 521.05244363 -863.14750903 514.66902674 -857.21484375 508.33764648 C-854.38368842 505.31256416 -851.63965053 502.22166241 -848.9296875 499.08764648 C-839.66535204 488.42161488 -830.12813444 477.90254265 -820.0546875 467.99389648 C-818.29325245 466.20149114 -816.65767574 464.3471309 -815.02734375 462.43530273 C-811.49676042 458.32168729 -807.68288351 454.53026561 -803.80371094 450.7487793 C-801.17183575 448.16255371 -798.68354054 445.52009717 -796.29467773 442.70703125 C-791.43134264 437.12693053 -786.17421884 431.93785443 -780.9375 426.71264648 C-779.84551184 425.61998284 -778.753672 424.52717095 -777.66197205 423.43421936 C-775.38507253 421.15585436 -773.10639722 418.8792849 -770.82641602 416.60400391 C-767.92391934 413.70720378 -765.02593669 410.80593594 -762.12928104 407.90329647 C-759.87898945 405.64936809 -757.62629283 403.39785547 -755.37289238 401.1470356 C-754.30419247 400.07899636 -753.23621701 399.01023165 -752.16902351 397.94068718 C-746.90707539 392.66968947 -741.63321503 387.46043436 -735.95054626 382.63832092 C-733.07433263 380.14060131 -730.43817693 377.40813989 -727.77734375 374.68530273 C-723.77373691 370.63646064 -719.73867686 366.72006366 -715.40234375 363.02514648 C-712.64167018 360.63493095 -709.95828926 358.16398102 -707.27734375 355.68530273 C-706.46100464 354.93071777 -706.46100464 354.93071777 -705.62817383 354.16088867 C-702.46180737 351.22693687 -699.3089731 348.27895704 -696.1640625 345.32202148 C-695.46603516 344.66588867 -694.76800781 344.00975586 -694.04882812 343.33374023 C-692.70114004 342.06562511 -691.3546992 340.79618261 -690.00976562 339.52514648 C-686.10475248 335.84795908 -682.12827069 332.27237121 -678.07885742 328.75488281 C-675.8874893 326.8456396 -673.73723433 324.89378463 -671.58984375 322.93530273 C-667.17460424 318.94734447 -662.65522795 315.1013353 -658.09936523 311.27661133 C-654.72318728 308.43388042 -651.41546363 305.53336751 -648.15234375 302.56030273 C-643.99676848 298.78493258 -639.69658123 295.23480288 -635.33203125 291.70483398 C-631.73694869 288.73958047 -628.22503466 285.6875825 -624.71484375 282.62280273 C-619.77745885 278.31749702 -614.78969697 274.11348618 -609.64453125 270.05639648 C-607.12396016 268.06406389 -604.63618153 266.03572899 -602.15234375 263.99780273 C-600.77755859 262.87245117 -600.77755859 262.87245117 -599.375 261.72436523 C-597.74425836 260.38881185 -596.1149563 259.05158232 -594.48779297 257.71166992 C-585.8356981 250.59007399 -577.06421175 243.68904294 -568.06640625 237.00952148 C-564.66584874 234.48429583 -561.31121573 231.90691795 -557.96484375 229.31030273 C-549.51160835 222.78774455 -540.89776662 216.48437507 -532.27734375 210.18530273 C-531.51728027 209.62907227 -530.7572168 209.0728418 -529.97412109 208.49975586 C-502.86394253 188.68688584 -474.88372545 169.77680012 -446.27734375 152.18530273 C-445.25527832 151.55591797 -444.23321289 150.9265332 -443.18017578 150.27807617 C-410.98924391 130.49771235 -378.14561266 112.08145662 -344.51904297 94.84790039 C-342.4537308 93.78864629 -340.39006852 92.72616462 -338.32861328 91.65942383 C-302.95033113 73.36873592 -265.90592062 57.98759353 -228.58984375 44.12280273 C-227.87375946 43.85658112 -227.15767517 43.5903595 -226.41989136 43.31607056 C-213.63840008 38.57878139 -200.78766793 34.0397301 -187.65234375 30.37280273 C-186.78665771 30.12908936 -185.92097168 29.88537598 -185.02905273 29.63427734 C-183.13265968 29.10165712 -181.23574964 28.57087487 -179.33837891 28.04174805 C-176.0693821 27.12711726 -172.80431406 26.19914711 -169.5390625 25.27124023 C-126.72490031 13.18073509 -83.62275702 4.8554936 -39.27734375 1.18530273 C-37.44598877 1.02952759 -37.44598877 1.02952759 -35.57763672 0.87060547 C-23.72920519 -0.00708497 -11.87541161 -0.00080763 0 0 Z " fill="#128893" transform="translate(4693.27734375,327.814697265625)"/>
</svg>
